<svg xmlns="http://www.w3.org/2000/svg" xmlns:xlink="http://www.w3.org/1999/xlink" width="60pt" height="60pt" viewBox="0 0 60 60" version="1.1">
<g id="surface1">
<path style=" stroke:none;fill-rule:nonzero;fill:rgb(20%,36.862746%,56.862748%);fill-opacity:1;" d="M 51.03125 51.449219 C 49.652344 52.800781 47.425781 54.613281 46.441406 55.183594 C 41.222656 58.21875 38.160156 59.28125 33.105469 59.824219 C 27.921875 60.375 22.730469 59.632812 18.257812 57.707031 C 12.363281 55.164062 7.761719 51.175781 4.359375 45.667969 C 3.453125 44.203125 3.101562 43.492188 2.023438 40.960938 C 1.503906 39.738281 0.707031 36.789062 0.414062 35 C -1.789062 21.566406 4.921875 8.722656 17.199219 2.863281 C 25.308594 -1.003906 34.429688 -0.953125 43.292969 3.007812 C 45.140625 3.832031 51.613281 8.859375 52.871094 10.445312 C 58.523438 17.566406 60.792969 25.328125 59.757812 33.984375 C 59.003906 40.25 55.683594 46.898438 51.03125 51.449219 Z M 51.03125 51.449219 "/>
<path style=" stroke:none;fill-rule:nonzero;fill:rgb(100%,100%,100%);fill-opacity:1;" d="M 55.785156 41.925781 C 57.589844 37.898438 58.449219 33.847656 58.367188 29.761719 C 58.15625 19.5 53.011719 10.640625 44.238281 5.445312 C 37.328125 1.351562 28.46875 0.507812 20.699219 3.214844 C 16.035156 4.835938 13.042969 6.734375 9.632812 10.230469 C -0.5 20.628906 -1.125 36.691406 8.15625 48.234375 C 9.878906 50.378906 14.652344 54.25 16.8125 55.257812 C 19.292969 56.414062 22.925781 57.628906 24.917969 57.96875 C 34.476562 59.59375 43.3125 56.730469 50.628906 49.632812 C 51.964844 48.335938 54.828125 44.050781 55.785156 41.925781 Z M 55.785156 41.925781 "/>
<path style=" stroke:none;fill-rule:nonzero;fill:rgb(92.156863%,13.725491%,14.901961%);fill-opacity:1;" d="M 43.976562 47.8125 C 43.199219 46.496094 41.675781 44.496094 41.382812 44.40625 C 41.195312 44.347656 40.574219 44.667969 40.003906 45.113281 C 36.085938 48.183594 30.074219 48.96875 24.390625 47.152344 C 22.871094 46.671875 22.296875 46.324219 19.847656 44.410156 C 17.320312 42.4375 16.949219 42.0625 16.082031 40.597656 C 14.664062 38.195312 13.351562 34.035156 13.585938 32.664062 C 13.667969 32.167969 13.738281 32.25 14.109375 33.28125 C 14.347656 33.929688 14.597656 34.511719 14.671875 34.5625 C 14.742188 34.621094 14.996094 35.023438 15.230469 35.460938 C 16.046875 36.953125 17.015625 38.054688 18.597656 39.28125 C 21.269531 41.355469 24.03125 42.289062 27.589844 42.320312 C 30.296875 42.34375 34.835938 41 35.667969 39.925781 C 35.957031 39.554688 35.902344 39.511719 33.976562 38.558594 C 32.882812 38.023438 31.488281 37.355469 30.882812 37.082031 C 30.273438 36.804688 29.769531 36.503906 29.753906 36.410156 C 29.722656 36.132812 33.742188 34.933594 37.402344 34.132812 C 42.054688 33.109375 45.679688 32.609375 46.097656 32.933594 C 46.851562 33.519531 46.691406 38.46875 45.773438 42.695312 C 44.625 48 44.425781 48.570312 43.976562 47.8125 Z M 43.976562 47.8125 "/>
<path style=" stroke:none;fill-rule:nonzero;fill:rgb(20%,36.862746%,56.862748%);fill-opacity:1;" d="M 49.542969 26.386719 C 50.558594 26.949219 51.46875 27.367188 51.566406 27.316406 C 52.003906 27.082031 49.078125 19.722656 46.691406 15.050781 L 45.050781 11.84375 L 43.855469 12.449219 C 42.121094 13.328125 39.808594 15.179688 37.589844 17.472656 C 35.550781 19.585938 33.597656 22.015625 33.734375 22.277344 C 33.78125 22.359375 34.828125 22.40625 36.066406 22.378906 C 41.546875 22.746094 45.234375 24.007812 49.542969 26.386719 Z M 12.605469 22.925781 C 11.5 23.28125 10.527344 23.515625 10.441406 23.445312 C 10.0625 23.128906 14.359375 16.480469 17.613281 12.359375 L 19.839844 9.535156 L 20.894531 10.363281 C 22.429688 11.5625 24.332031 13.828125 26.0625 16.507812 C 27.65625 18.976562 29.097656 21.742188 28.910156 21.96875 C 28.851562 22.042969 27.8125 21.886719 26.605469 21.617188 C 21.160156 20.910156 17.296875 21.433594 12.605469 22.925781 Z M 12.605469 22.925781 "/>
</g>
</svg>
