<svg xmlns="http://www.w3.org/2000/svg" xmlns:xlink="http://www.w3.org/1999/xlink" width="96pt" height="96pt" viewBox="0 0 96 96" version="1.1">
<g id="surface1">
<path style=" stroke:none;fill-rule:nonzero;fill:rgb(20.784314%,37.64706%,57.647061%);fill-opacity:1;" d="M 81.652344 82.320312 C 79.445312 84.480469 75.878906 87.378906 74.308594 88.292969 C 65.953125 93.148438 61.058594 94.851562 52.96875 95.714844 C 44.675781 96.597656 36.367188 95.414062 29.214844 92.332031 C 19.78125 88.261719 12.417969 81.882812 6.976562 73.070312 C 5.523438 70.722656 4.960938 69.585938 3.238281 65.535156 C 2.40625 63.582031 1.132812 58.859375 0.664062 56 C -2.859375 34.503906 7.875 13.953125 27.519531 4.582031 C 40.496094 -1.605469 55.089844 -1.523438 69.269531 4.8125 C 72.222656 6.132812 82.582031 14.175781 84.59375 16.710938 C 93.636719 28.105469 97.269531 40.527344 95.609375 54.375 C 94.40625 64.398438 89.09375 75.039062 81.652344 82.320312 Z M 81.652344 82.320312 "/>
<path style=" stroke:none;fill-rule:nonzero;fill:rgb(100%,100%,100%);fill-opacity:1;" d="M 89.253906 67.082031 C 92.144531 60.636719 93.519531 54.15625 93.386719 47.617188 C 93.050781 31.199219 84.816406 17.027344 70.78125 8.710938 C 59.722656 2.160156 45.550781 0.8125 33.121094 5.140625 C 25.65625 7.738281 20.871094 10.773438 15.414062 16.371094 C -0.800781 33.007812 -1.800781 58.707031 13.050781 77.175781 C 15.808594 80.605469 23.441406 86.796875 26.898438 88.410156 C 30.867188 90.261719 36.679688 92.207031 39.871094 92.75 C 55.164062 95.351562 69.296875 90.765625 81.003906 79.410156 C 83.140625 77.335938 87.726562 70.480469 89.253906 67.082031 Z M 89.253906 67.082031 "/>
<path style=" stroke:none;fill-rule:nonzero;fill:rgb(92.54902%,14.901961%,15.686275%);fill-opacity:1;" d="M 70.363281 76.5 C 69.121094 74.390625 66.683594 71.191406 66.210938 71.046875 C 65.910156 70.957031 64.917969 71.464844 64.007812 72.179688 C 57.734375 77.089844 48.121094 78.347656 39.023438 75.445312 C 36.59375 74.671875 35.675781 74.117188 31.753906 71.054688 C 27.710938 67.898438 27.117188 67.296875 25.734375 64.957031 C 23.460938 61.113281 21.363281 54.453125 21.738281 52.261719 C 21.871094 51.46875 21.984375 51.597656 22.578125 53.246094 C 22.957031 54.289062 23.359375 55.214844 23.472656 55.300781 C 23.585938 55.390625 23.992188 56.035156 24.371094 56.734375 C 25.675781 59.125 27.226562 60.886719 29.753906 62.847656 C 34.03125 66.167969 38.449219 67.664062 44.144531 67.710938 C 48.472656 67.75 55.738281 65.597656 57.066406 63.882812 C 57.53125 63.285156 57.441406 63.214844 54.359375 61.695312 C 52.609375 60.835938 50.378906 59.765625 49.410156 59.328125 C 48.4375 58.886719 47.628906 58.40625 47.609375 58.257812 C 47.554688 57.8125 53.984375 55.894531 59.84375 54.609375 C 67.289062 52.976562 73.089844 52.175781 73.753906 52.691406 C 74.964844 53.632812 74.707031 61.550781 73.238281 68.3125 C 71.398438 76.800781 71.078125 77.710938 70.363281 76.5 Z M 70.363281 76.5 "/>
<path style=" stroke:none;fill-rule:nonzero;fill:rgb(20.784314%,37.64706%,57.647061%);fill-opacity:1;" d="M 79.269531 42.21875 C 80.894531 43.121094 82.351562 43.789062 82.503906 43.703125 C 83.203125 43.328125 78.523438 31.554688 74.703125 24.078125 L 72.078125 18.949219 L 70.167969 19.917969 C 67.390625 21.324219 63.695312 24.289062 60.144531 27.957031 C 56.878906 31.335938 53.753906 35.226562 53.976562 35.644531 C 54.050781 35.777344 55.726562 35.851562 57.707031 35.808594 C 66.472656 36.394531 72.375 38.414062 79.269531 42.21875 Z M 20.171875 36.683594 C 18.402344 37.25 16.84375 37.625 16.707031 37.511719 C 16.097656 37.003906 22.976562 26.367188 28.179688 19.777344 L 31.746094 15.253906 L 33.433594 16.578125 C 35.886719 18.5 38.933594 22.125 41.703125 26.414062 C 44.25 30.363281 46.558594 34.789062 46.257812 35.152344 C 46.160156 35.269531 44.5 35.015625 42.570312 34.589844 C 33.859375 33.457031 27.675781 34.292969 20.171875 36.683594 Z M 20.171875 36.683594 "/>
</g>
</svg>
