<svg xmlns="http://www.w3.org/2000/svg" xmlns:xlink="http://www.w3.org/1999/xlink" width="20pt" height="20pt" viewBox="0 0 20 20" version="1.1">
<g id="surface1">
<path style=" stroke:none;fill-rule:nonzero;fill:rgb(20%,36.862746%,56.862748%);fill-opacity:1;" d="M 17.011719 17.152344 C 16.550781 17.601562 15.808594 18.203125 15.480469 18.394531 C 13.742188 19.40625 12.71875 19.761719 11.035156 19.941406 C 9.308594 20.125 7.578125 19.878906 6.085938 19.234375 C 4.121094 18.386719 2.585938 17.058594 1.453125 15.222656 C 1.152344 14.734375 1.035156 14.496094 0.675781 13.652344 C 0.5 13.246094 0.234375 12.261719 0.136719 11.667969 C -0.597656 7.1875 1.640625 2.90625 5.734375 0.953125 C 8.4375 -0.335938 11.476562 -0.316406 14.429688 1.003906 C 15.046875 1.277344 17.203125 2.953125 17.625 3.480469 C 19.507812 5.855469 20.265625 8.445312 19.917969 11.328125 C 19.667969 13.417969 18.5625 15.632812 17.011719 17.152344 Z M 17.011719 17.152344 "/>
<path style=" stroke:none;fill-rule:nonzero;fill:rgb(100%,100%,100%);fill-opacity:1;" d="M 18.59375 13.976562 C 19.195312 12.632812 19.484375 11.28125 19.457031 9.921875 C 19.386719 6.5 17.671875 3.546875 14.746094 1.816406 C 12.441406 0.449219 9.488281 0.167969 6.898438 1.070312 C 5.34375 1.613281 4.347656 2.246094 3.210938 3.410156 C -0.167969 6.878906 -0.375 12.230469 2.71875 16.078125 C 3.292969 16.792969 4.882812 18.082031 5.605469 18.417969 C 6.429688 18.804688 7.640625 19.210938 8.304688 19.324219 C 11.492188 19.867188 14.4375 18.910156 16.875 16.542969 C 17.320312 16.113281 18.277344 14.683594 18.59375 13.976562 Z M 18.59375 13.976562 "/>
<path style=" stroke:none;fill-rule:nonzero;fill:rgb(92.156863%,13.725491%,14.901961%);fill-opacity:1;" d="M 14.660156 15.9375 C 14.398438 15.5 13.890625 14.832031 13.792969 14.800781 C 13.730469 14.78125 13.523438 14.890625 13.335938 15.039062 C 12.027344 16.0625 10.023438 16.324219 8.128906 15.71875 C 7.625 15.558594 7.433594 15.441406 6.617188 14.804688 C 5.773438 14.144531 5.648438 14.019531 5.359375 13.53125 C 4.886719 12.730469 4.449219 11.34375 4.527344 10.886719 C 4.554688 10.722656 4.578125 10.75 4.703125 11.09375 C 4.78125 11.3125 4.867188 11.503906 4.890625 11.519531 C 4.914062 11.539062 5 11.675781 5.078125 11.820312 C 5.347656 12.316406 5.671875 12.683594 6.199219 13.09375 C 7.089844 13.785156 8.011719 14.097656 9.195312 14.105469 C 10.097656 14.113281 11.613281 13.667969 11.890625 13.308594 C 11.984375 13.183594 11.96875 13.171875 11.324219 12.855469 C 10.960938 12.675781 10.496094 12.453125 10.292969 12.359375 C 10.089844 12.269531 9.921875 12.167969 9.917969 12.136719 C 9.90625 12.042969 11.246094 11.644531 12.46875 11.378906 C 14.019531 11.039062 15.226562 10.871094 15.367188 10.976562 C 15.617188 11.175781 15.5625 12.824219 15.257812 14.230469 C 14.875 16 14.808594 16.191406 14.660156 15.9375 Z M 14.660156 15.9375 "/>
<path style=" stroke:none;fill-rule:nonzero;fill:rgb(20%,36.862746%,56.862748%);fill-opacity:1;" d="M 16.515625 8.796875 C 16.851562 8.984375 17.15625 9.125 17.1875 9.105469 C 17.335938 9.027344 16.359375 6.574219 15.5625 5.015625 L 15.015625 3.949219 L 14.617188 4.148438 C 14.039062 4.441406 13.269531 5.058594 12.53125 5.824219 C 11.851562 6.527344 11.199219 7.339844 11.246094 7.425781 C 11.261719 7.453125 11.609375 7.46875 12.023438 7.460938 C 13.847656 7.582031 15.078125 8.003906 16.515625 8.796875 Z M 4.203125 7.644531 C 3.832031 7.761719 3.507812 7.839844 3.480469 7.816406 C 3.355469 7.710938 4.785156 5.492188 5.871094 4.121094 L 6.613281 3.179688 L 6.964844 3.453125 C 7.476562 3.855469 8.109375 4.609375 8.6875 5.503906 C 9.21875 6.324219 9.699219 7.25 9.636719 7.324219 C 9.617188 7.347656 9.269531 7.296875 8.867188 7.207031 C 7.054688 6.96875 5.765625 7.144531 4.203125 7.644531 Z M 4.203125 7.644531 "/>
</g>
</svg>
