<svg xmlns="http://www.w3.org/2000/svg" xmlns:xlink="http://www.w3.org/1999/xlink" width="40pt" height="40pt" viewBox="0 0 40 40" version="1.1">
<g id="surface1">
<path style=" stroke:none;fill-rule:nonzero;fill:rgb(20%,36.862746%,56.862748%);fill-opacity:1;" d="M 34.023438 34.300781 C 33.101562 35.199219 31.617188 36.410156 30.960938 36.789062 C 27.480469 38.8125 25.441406 39.523438 22.070312 39.882812 C 18.613281 40.25 15.152344 39.757812 12.171875 38.472656 C 8.242188 36.777344 5.175781 34.117188 2.90625 30.445312 C 2.300781 29.46875 2.066406 28.996094 1.347656 27.308594 C 1.003906 26.492188 0.472656 24.523438 0.277344 23.332031 C -1.191406 14.378906 3.28125 5.8125 11.464844 1.910156 C 16.875 -0.667969 22.953125 -0.632812 28.863281 2.003906 C 30.09375 2.554688 34.410156 5.90625 35.246094 6.964844 C 39.015625 11.710938 40.527344 16.886719 39.835938 22.65625 C 39.335938 26.832031 37.121094 31.265625 34.023438 34.300781 Z M 34.023438 34.300781 "/>
<path style=" stroke:none;fill-rule:nonzero;fill:rgb(100%,100%,100%);fill-opacity:1;" d="M 37.1875 27.953125 C 38.394531 25.265625 38.964844 22.566406 38.910156 19.839844 C 38.769531 13 35.339844 7.09375 29.492188 3.628906 C 24.882812 0.898438 18.980469 0.339844 13.800781 2.140625 C 10.691406 3.222656 8.695312 4.488281 6.421875 6.820312 C -0.332031 13.753906 -0.75 24.460938 5.4375 32.15625 C 6.585938 33.585938 9.765625 36.164062 11.207031 36.839844 C 12.859375 37.609375 15.28125 38.421875 16.613281 38.644531 C 22.984375 39.730469 28.875 37.820312 33.75 33.089844 C 34.640625 32.222656 36.554688 29.367188 37.1875 27.953125 Z M 37.1875 27.953125 "/>
<path style=" stroke:none;fill-rule:nonzero;fill:rgb(92.156863%,13.725491%,14.901961%);fill-opacity:1;" d="M 29.316406 31.875 C 28.800781 30.996094 27.785156 29.664062 27.589844 29.601562 C 27.460938 29.566406 27.050781 29.777344 26.671875 30.074219 C 24.054688 32.121094 20.050781 32.644531 16.257812 31.4375 C 15.246094 31.113281 14.863281 30.882812 13.230469 29.605469 C 11.546875 28.292969 11.296875 28.039062 10.722656 27.066406 C 9.773438 25.464844 8.902344 22.6875 9.058594 21.777344 C 9.113281 21.445312 9.160156 21.5 9.40625 22.1875 C 9.566406 22.621094 9.734375 23.007812 9.78125 23.042969 C 9.828125 23.078125 9.996094 23.347656 10.15625 23.640625 C 10.699219 24.636719 11.34375 25.371094 12.398438 26.1875 C 14.179688 27.570312 16.019531 28.195312 18.394531 28.214844 C 20.195312 28.230469 23.222656 27.332031 23.777344 26.617188 C 23.972656 26.371094 23.933594 26.339844 22.648438 25.707031 C 21.921875 25.347656 20.992188 24.902344 20.585938 24.71875 C 20.183594 24.535156 19.84375 24.335938 19.835938 24.273438 C 19.8125 24.089844 22.492188 23.289062 24.933594 22.753906 C 28.039062 22.074219 30.453125 21.742188 30.730469 21.957031 C 31.234375 22.347656 31.128906 25.648438 30.515625 28.464844 C 29.75 32 29.617188 32.378906 29.316406 31.875 Z M 29.316406 31.875 "/>
<path style=" stroke:none;fill-rule:nonzero;fill:rgb(20%,36.862746%,56.862748%);fill-opacity:1;" d="M 33.027344 17.589844 C 33.707031 17.96875 34.3125 18.246094 34.375 18.210938 C 34.667969 18.054688 32.71875 13.148438 31.125 10.03125 L 30.03125 7.894531 L 29.238281 8.300781 C 28.078125 8.886719 26.539062 10.121094 25.058594 11.648438 C 23.699219 13.058594 22.398438 14.679688 22.492188 14.851562 C 22.519531 14.90625 23.21875 14.9375 24.042969 14.921875 C 27.695312 15.164062 30.15625 16.007812 33.027344 17.589844 Z M 8.40625 15.285156 C 7.667969 15.519531 7.019531 15.675781 6.960938 15.628906 C 6.707031 15.417969 9.574219 10.988281 11.742188 8.242188 L 13.226562 6.355469 L 13.929688 6.90625 C 14.953125 7.707031 16.222656 9.21875 17.375 11.007812 C 18.4375 12.652344 19.398438 14.496094 19.273438 14.648438 C 19.234375 14.695312 18.542969 14.589844 17.738281 14.414062 C 14.109375 13.941406 11.53125 14.289062 8.40625 15.285156 Z M 8.40625 15.285156 "/>
</g>
</svg>
